<svg width="96" height="31" viewBox="0 0 96 31" fill="none" xmlns="http://www.w3.org/2000/svg">
<path fill-rule="evenodd" clip-rule="evenodd" d="M27.4149 21.9329L27.4149 21.933C27.8448 23.0624 27.9403 24.1428 27.797 25.2231C27.4627 27.4821 26.0298 29.4464 23.9284 30.3303C23.1642 30.674 22.3522 30.8214 21.4925 30.8214C21.2537 30.8214 20.9672 30.8214 20.7284 30.7723C19.7254 30.674 18.7224 30.3303 17.7194 29.741C16.5254 29.0535 15.3313 28.0223 13.994 26.549C12.6567 28.0223 11.5104 29.0535 10.2687 29.741C9.26567 30.3303 8.26268 30.6249 7.2597 30.7723C7.14029 30.7723 7.00895 30.7845 6.87761 30.7968L6.87754 30.7968C6.74622 30.8091 6.6149 30.8214 6.49552 30.8214C5.63581 30.8214 4.82387 30.674 4.0597 30.3303C2.00596 29.4464 0.477606 27.5312 0.143278 25.2231C-5.99082e-06 24.0937 0.143278 23.0133 0.525367 21.933C0.668651 21.491 0.811934 21.1473 0.955218 20.8035C1.19402 20.2633 1.43283 19.7231 1.62387 19.2321L1.67164 19.183C3.77313 14.5669 5.97014 9.90172 8.26268 5.28564L8.3582 5.08922C8.59701 4.64725 8.83582 4.15618 9.07462 3.66511C9.13883 3.56136 9.20304 3.45581 9.26793 3.34913L9.26816 3.34875L9.26827 3.34858C9.54113 2.9 9.82598 2.43172 10.1731 1.99547C11.1761 0.816894 12.5134 0.129395 13.994 0.129395C15.4269 0.129395 16.8119 0.816894 17.7672 2.04457C18.2448 2.58475 18.5791 3.17404 18.8657 3.71422C19.1045 4.20529 19.3433 4.69636 19.5821 5.13832L19.6776 5.33475C22.0179 9.95082 24.2149 14.616 26.2687 19.2321H26.3164C26.5074 19.7231 26.7462 20.2632 26.985 20.8034L26.9851 20.8035C27.1283 21.1472 27.2716 21.5401 27.4149 21.9329ZM50.4836 7.83926C50.4836 8.96872 49.6239 9.85265 48.5254 9.85265C47.4269 9.85265 46.5672 8.96872 46.5672 7.83926C46.5672 6.70979 47.4269 5.82586 48.5254 5.82586C49.6716 5.87497 50.4836 6.7589 50.4836 7.83926ZM42.5074 11.866V12.3571C42.5074 12.3571 41.6 11.1294 39.594 11.1294C36.3463 11.1294 33.8149 13.683 33.8149 17.2187C33.8149 20.7053 36.3463 23.308 39.594 23.308C41.6 23.308 42.5074 22.0312 42.5074 22.0312V22.5714C42.5074 22.8169 42.6985 23.0133 42.9373 23.0133H45.3731V11.424H42.9373C42.6507 11.424 42.5074 11.6205 42.5074 11.866ZM40.0716 20.509C41.1702 20.509 42.0776 19.9197 42.5075 19.2322V15.1072C42.0776 14.4688 41.1224 13.8304 40.0716 13.8304C38.1612 13.8304 36.6806 15.0581 36.6806 17.1697C36.6806 19.2813 38.1612 20.509 40.0716 20.509ZM47.0925 11.4241H49.9582V22.9643H47.0925V11.4241ZM87.0209 12.3571C87.0209 12.3571 87.9761 11.1294 89.9343 11.1294C93.1821 11.1294 95.7134 13.683 95.7134 17.1696C95.7134 20.6562 93.1821 23.2589 89.9343 23.2589C87.9283 23.2589 87.0209 21.9821 87.0209 21.9821V22.5223C87.0209 22.7678 86.8298 22.9642 86.591 22.9642H84.1552V5.87496H87.0209V12.3571ZM89.4567 20.4597C88.3582 20.4597 87.4985 19.8705 87.0209 19.183V15.058C87.4507 14.4196 88.4059 13.7812 89.4567 13.7812C91.3671 13.7812 92.8477 15.0088 92.8477 17.1205C92.8477 19.2321 91.3671 20.4597 89.4567 20.4597ZM82.6746 23.0133V16.1383C82.6746 14.174 82.2925 13.0937 81.3373 12.2589C80.4776 11.5223 79.4269 11.1294 78.1851 11.1294C77.0866 11.1294 75.9881 11.4731 75.1284 12.3571V11.866C75.1284 11.6205 74.9373 11.424 74.6985 11.424H72.406V23.0133H75.2716V14.9598C75.8448 14.2723 76.7522 13.8303 77.6119 13.8303C79.1881 13.8303 79.809 14.5669 79.809 16.4821V23.0133H82.6746ZM65.4328 11.1294C63.4746 11.1294 62.5194 12.3571 62.5194 12.3571V5.87496H59.6537V22.9642H62.0895C62.3283 22.9642 62.5194 22.7678 62.5194 22.5223V21.9821C62.5194 21.9821 63.4269 23.2589 65.4328 23.2589C68.6806 23.2589 71.2119 20.6562 71.2119 17.1696C71.2597 13.683 68.7283 11.1294 65.4328 11.1294ZM62.5194 19.183C62.997 19.8705 63.8567 20.4597 64.9552 20.4597C66.8657 20.4597 68.3463 19.2321 68.3463 17.1205C68.3463 15.0088 66.8657 13.7812 64.9552 13.7812C63.9045 13.7812 62.9493 14.4196 62.5194 15.058V19.183ZM57.2179 11.1294C58.0776 11.1294 58.5552 11.2767 58.5552 11.2767V14.0267C58.5552 14.0267 56.1672 13.1919 54.6866 14.9598V23.0133H51.8209V11.424H54.2567C54.4955 11.424 54.6866 11.6205 54.6866 11.866V12.3571C55.1642 11.7187 56.3104 11.1294 57.2179 11.1294ZM13.9463 23.5045C12.3224 21.3929 11.2716 19.4286 10.9373 17.8081C10.794 17.1206 10.7463 16.4822 10.8418 15.942C10.8895 15.4509 11.0806 15.009 11.3194 14.6652C11.8925 13.8304 12.8478 13.2902 13.9463 13.2902C15.0448 13.2902 16.0478 13.7813 16.5731 14.6652C16.8119 15.0581 17.003 15.4509 17.0507 15.942C17.1463 16.4822 17.0985 17.1206 16.9552 17.8081C16.6209 19.4286 15.5701 21.3929 13.9463 23.5045ZM23.1642 28.5625C24.6448 27.9732 25.6955 26.5982 25.8866 24.9777C25.9821 24.1428 25.8866 23.4062 25.7433 22.6205C25.6916 22.461 25.6259 22.3015 25.5537 22.1264C25.4926 21.9781 25.4269 21.8186 25.3612 21.6384C25.2418 21.3928 25.1343 21.135 25.0269 20.8772C24.9194 20.6194 24.8119 20.3616 24.6925 20.1161V20.067C22.6388 15.5 20.4418 10.8348 18.1493 6.26785L18.0537 6.07142C17.8149 5.58035 17.5761 5.08927 17.3373 4.64731C17.0985 4.15624 16.8119 3.66517 16.4776 3.27231C15.8567 2.5357 14.997 2.14285 14.0896 2.14285C13.1821 2.14285 12.3224 2.5357 11.7015 3.27231C11.3672 3.71427 11.0806 4.15624 10.8418 4.64731C10.603 5.13838 10.3642 5.62945 10.1254 6.07142L10.0298 6.26785C7.68955 10.8348 5.49254 15.5 3.4388 20.067L3.39104 20.1161C3.15224 20.6071 2.91343 21.1473 2.72239 21.6384C2.5791 21.9821 2.43582 22.3259 2.3403 22.6205C2.00597 23.5045 1.95821 24.2411 2.05373 25.0268C2.24477 26.5982 3.29552 27.9732 4.77612 28.6116C5.44477 28.8571 6.20895 29.0045 7.02089 28.9062C7.78507 28.808 8.54925 28.5625 9.31343 28.1205C10.3642 27.4821 11.4627 26.5491 12.7045 25.125C10.7463 22.6205 9.50448 20.3125 9.07463 18.2991C8.83582 17.3661 8.78806 16.4821 8.93134 15.6964C9.07463 14.9107 9.31343 14.2232 9.74328 13.5848C10.6507 12.2589 12.2269 11.4241 13.9463 11.4241C15.6657 11.4241 17.2418 12.2098 18.1493 13.5848C18.5791 14.2232 18.8179 14.9107 18.9612 15.6964C19.0567 16.4821 19.009 17.3661 18.8179 18.2991C18.3403 20.3125 17.1463 22.5714 15.1881 25.0759C16.4298 26.5 17.4806 27.433 18.5791 28.0714C19.391 28.5134 20.1075 28.7589 20.8716 28.8571C21.6836 28.9553 22.4478 28.8571 23.1642 28.5625Z" fill="white"/>
</svg>
