<svg width="96" height="26" viewBox="0 0 96 26" fill="none" xmlns="http://www.w3.org/2000/svg">
<path fill-rule="evenodd" clip-rule="evenodd" d="M14.016 2.02211C14.016 3.04363 13.152 3.91922 12.144 3.91922C11.136 3.91922 10.272 3.04363 10.272 2.02211C10.272 1.00059 11.136 0.125 12.144 0.125C13.152 0.125 14.016 1.00059 14.016 2.02211ZM12.144 5.47587C11.04 5.47587 10.176 6.35146 10.176 7.47027C10.176 8.58908 11.04 9.46467 12.144 9.46467C13.248 9.46467 14.112 8.58908 14.112 7.47027C14.112 6.30281 13.248 5.47587 12.144 5.47587ZM10.128 12.8211C10.128 11.7023 11.04 10.778 12.144 10.778C13.248 10.778 14.208 11.7023 14.16 12.8211C14.16 13.9399 13.248 14.8641 12.144 14.8641C11.04 14.8641 10.128 13.9399 10.128 12.8211ZM12.144 16.1775C11.04 16.1775 10.176 17.0531 10.176 18.1719C10.176 19.2907 11.04 20.1663 12.144 20.1663C13.248 20.1663 14.112 19.2907 14.112 18.1719C14.112 17.1017 13.248 16.1775 12.144 16.1775ZM10.272 23.5714C10.272 22.5498 11.136 21.6742 12.144 21.6742C13.2 21.6742 14.016 22.5498 14.016 23.5714C14.016 24.5929 13.152 25.4685 12.144 25.4685C11.136 25.4685 10.272 24.5929 10.272 23.5714ZM17.328 5.23266C16.128 5.23266 15.12 6.25418 15.12 7.47028C15.12 8.68637 16.128 9.70789 17.328 9.70789C18.528 9.70789 19.536 8.68637 19.536 7.47028C19.536 6.25418 18.528 5.23266 17.328 5.23266ZM15.024 12.8697C15.024 11.5563 16.08 10.5348 17.328 10.5348C18.576 10.5348 19.632 11.5563 19.632 12.8697C19.632 14.1831 18.576 15.2046 17.328 15.2046C16.032 15.2046 15.024 14.1345 15.024 12.8697ZM17.328 15.9343C16.128 15.9343 15.12 16.9558 15.12 18.1719C15.12 19.388 16.128 20.4095 17.328 20.4095C18.528 20.4095 19.536 19.388 19.536 18.1719C19.536 16.9558 18.528 15.9343 17.328 15.9343ZM20.112 12.821C20.112 11.3617 21.312 10.2429 22.656 10.2429C24 10.2429 25.104 11.3617 25.2 12.821C25.2 14.2803 24.096 15.3991 22.656 15.3991C21.216 15.3991 20.112 14.183 20.112 12.821ZM6.91199 5.71908C5.99999 5.71908 5.23199 6.49738 5.23199 7.42161C5.23199 8.34585 5.99999 9.12415 6.91199 9.12415C7.82399 9.12415 8.59199 8.34585 8.59199 7.42161C8.59199 6.49738 7.87199 5.71908 6.91199 5.71908ZM5.136 12.8211C5.136 11.7995 5.904 11.0212 6.912 11.0212C7.92 11.0212 8.688 11.7995 8.688 12.8211C8.688 13.8426 7.92 14.6209 6.912 14.6209C5.904 14.6209 5.136 13.8426 5.136 12.8211ZM6.91199 16.4207C5.99999 16.4207 5.23199 17.199 5.23199 18.1232C5.23199 19.0475 5.99999 19.8258 6.91199 19.8258C7.82399 19.8258 8.59199 19.0475 8.59199 18.1232C8.59199 17.199 7.87199 16.4207 6.91199 16.4207ZM0.143997 12.8696C0.143997 11.994 0.815997 11.313 1.68 11.313C2.544 11.313 3.216 11.994 3.216 12.8696C3.216 13.7452 2.544 14.4262 1.68 14.4262C0.815997 14.4262 0.143997 13.7452 0.143997 12.8696Z" fill="white"/>
<path d="M44.304 9.51343C44.112 9.51343 43.968 9.708 43.968 9.85393V23.3283C43.968 23.5229 44.16 23.6688 44.304 23.6688H45.888C46.08 23.6688 46.224 23.4742 46.224 23.3283V9.85393C46.224 9.65936 46.032 9.51343 45.888 9.51343H44.304V9.51343Z" fill="white"/>
<path d="M45.168 3.82202C44.304 3.82202 43.632 4.50304 43.632 5.37863C43.632 6.25421 44.304 6.93523 45.168 6.93523C46.032 6.93523 46.704 6.25421 46.704 5.37863C46.704 4.50304 45.984 3.82202 45.168 3.82202Z" fill="white"/>
<path d="M78.384 9.51343C78.192 9.51343 78.048 9.708 78.048 9.85393V23.3283C78.048 23.5229 78.24 23.6688 78.384 23.6688H79.968C80.16 23.6688 80.304 23.4742 80.304 23.3283V9.85393C80.304 9.65936 80.112 9.51343 79.968 9.51343H78.384V9.51343Z" fill="white"/>
<path d="M79.152 3.82202C78.288 3.82202 77.616 4.50304 77.616 5.37863C77.616 6.25421 78.288 6.93523 79.152 6.93523C80.016 6.93523 80.688 6.25421 80.688 5.37863C80.688 4.50304 80.016 3.82202 79.152 3.82202Z" fill="white"/>
<path fill-rule="evenodd" clip-rule="evenodd" d="M95.359 22.1935C95.3491 22.2408 95.3249 22.2981 95.266 22.3554C95.266 22.4527 95.166 22.55 94.966 22.5013L95.0426 22.5924C95.0326 22.5963 95.0237 22.5986 95.016 22.5986H94.866L94.866 22.5986H94.666V22.4527V22.0149H95.016C95.116 22.0149 95.216 22.0149 95.266 22.1122C95.3249 22.1122 95.3491 22.1459 95.359 22.1935ZM94.666 22.5986H94.616V23.0364H94.416V21.8203H94.866H95.066C95.166 21.8203 95.266 21.9176 95.266 21.9176C95.366 21.9176 95.366 22.0149 95.366 22.0149V22.1122C95.366 22.1322 95.366 22.1604 95.359 22.1935C95.366 22.2267 95.366 22.2667 95.366 22.3068C95.366 22.404 95.366 22.5013 95.266 22.5013C95.2074 22.5013 95.1488 22.5347 95.1003 22.5624C95.0788 22.5746 95.0592 22.5858 95.0426 22.5924L95.416 23.0364H95.216L94.866 22.5986H94.666V22.5986Z" fill="#8C98A4"/>
<path fill-rule="evenodd" clip-rule="evenodd" d="M93.792 22.4525C93.792 21.8688 94.32 21.3337 94.896 21.3337C95.52 21.3337 96 21.8202 96 22.4525C96 23.0363 95.472 23.5714 94.896 23.5714C94.32 23.5714 93.792 23.0363 93.792 22.4525ZM93.888 22.4526C93.888 23.0363 94.32 23.4741 94.896 23.4741C95.424 23.4741 95.904 23.0363 95.904 22.4526C95.904 21.8688 95.472 21.431 94.896 21.431C94.32 21.431 93.888 21.8688 93.888 22.4526Z" fill="#8C98A4"/>
<path d="M57.504 11.7023C57.696 11.7023 57.84 11.5078 57.84 11.3618V9.75658C57.84 9.562 57.648 9.41607 57.504 9.41607H54.096V4.25982C54.096 4.06524 53.904 3.91931 53.76 3.91931H52.176C51.984 3.91931 51.84 4.11389 51.84 4.25982V9.41607H50.16C49.968 9.41607 49.824 9.61064 49.824 9.75658V11.3618C49.824 11.5564 50.016 11.7023 50.16 11.7023H51.84V19.4853C51.84 21.8689 53.424 23.4255 55.728 23.4255H57.408C57.6 23.4255 57.744 23.2309 57.744 23.085V21.4797C57.744 21.2852 57.552 21.1392 57.408 21.1392H55.968C54.864 21.1392 54.096 20.3609 54.096 19.1448V11.6537H57.504V11.7023V11.7023Z" fill="white"/>
<path d="M91.2 11.7023C91.392 11.7023 91.536 11.5078 91.536 11.3618V9.75658C91.536 9.562 91.344 9.41607 91.2 9.41607H87.792V4.25982C87.792 4.06524 87.6 3.91931 87.456 3.91931H85.872C85.68 3.91931 85.536 4.11389 85.536 4.25982V9.41607H83.856C83.664 9.41607 83.52 9.61064 83.52 9.75658V11.3618C83.52 11.5564 83.712 11.7023 83.856 11.7023H85.536V19.4853C85.536 21.8689 87.12 23.4255 89.424 23.4255H91.104C91.296 23.4255 91.44 23.2309 91.44 23.085V21.4797C91.44 21.2852 91.248 21.1392 91.104 21.1392H89.568C88.464 21.1392 87.696 20.3609 87.696 19.1448V11.6537H91.152L91.2 11.7023V11.7023Z" fill="white"/>
<path d="M34.224 11.7023V23.1822C34.224 23.3768 34.416 23.5227 34.56 23.5227H36.144C36.336 23.5227 36.48 23.3282 36.48 23.1822V11.7023H40.224C40.416 11.7023 40.56 11.5077 40.56 11.3618V9.75653C40.56 9.56196 40.368 9.41602 40.224 9.41602H36.48V6.40011C36.48 5.18401 37.344 4.35706 38.352 4.35706H40.224C40.416 4.35706 40.56 4.16249 40.56 4.01656V2.41131C40.56 2.21673 40.368 2.0708 40.224 2.0708H38.448C36.096 2.0708 34.224 4.0652 34.224 6.35146V9.41602H32.544C32.352 9.41602 32.208 9.6106 32.208 9.75653V11.3618C32.208 11.5564 32.4 11.7023 32.544 11.7023H34.224V11.7023Z" fill="white"/>
<path fill-rule="evenodd" clip-rule="evenodd" d="M68.112 8.97823C69.984 8.97823 71.76 9.75653 73.008 11.1186C74.256 12.4806 74.928 14.3777 74.928 16.4694C74.928 21.6743 71.424 24.0092 68.064 24.0092C64.656 24.0092 61.2 21.7229 61.2 16.4694V2.31402C61.2 2.16809 61.344 1.97351 61.536 1.97351H63.12C63.264 1.97351 63.456 2.11944 63.456 2.31402V10.8753C64.56 9.75653 66.336 8.97823 68.112 8.97823ZM63.408 16.518C63.408 19.0961 64.656 21.8202 68.064 21.8202C71.472 21.8202 72.672 19.0961 72.72 16.518C72.72 13.4048 70.848 11.2644 68.064 11.2644C65.28 11.2644 63.408 13.3561 63.408 16.518Z" fill="white"/>
</svg>
