<svg width="96" height="33" viewBox="0 0 96 33" fill="none" xmlns="http://www.w3.org/2000/svg">
<path d="M23.6269 11.4725H12.4352V14.8756H20.3938C19.9959 19.6709 16.1161 21.785 12.485 21.785C7.80933 21.785 3.73057 17.9693 3.73057 12.6584C3.73057 7.4506 7.61036 3.42872 12.485 3.42872C16.2653 3.42872 18.4539 5.90372 18.4539 5.90372L20.742 3.42872C20.742 3.42872 17.7575 0.0255967 12.3358 0.0255967C5.42176 -0.0259658 0.0994835 6.00685 0.0994835 12.5553C0.0994835 18.949 5.12332 25.1881 12.5347 25.1881C19.0508 25.1881 23.8259 20.599 23.8259 13.7412C23.8259 12.2975 23.6269 11.4725 23.6269 11.4725V11.4725Z" fill="white"/>
<path fill-rule="evenodd" clip-rule="evenodd" d="M24.8705 16.9904C24.8705 12.6592 28.1534 8.94666 32.7295 8.94666C36.5098 8.94666 40.5886 11.731 40.6383 17.0935C40.6383 21.8373 37.1565 25.1888 32.829 25.1888C28.0539 25.1888 24.8705 21.4248 24.8705 16.9904ZM37.1565 17.0935C37.1565 14.1029 35.0176 12.1951 32.7793 12.1951C30.2425 12.1951 28.3026 14.2576 28.3523 17.042C28.3523 19.9295 30.2922 21.992 32.7793 21.992C35.0674 21.992 37.1565 20.0842 37.1565 17.0935Z" fill="white"/>
<path fill-rule="evenodd" clip-rule="evenodd" d="M41.9813 16.9904C41.9813 12.6592 45.2642 8.94666 49.8404 8.94666C53.6207 8.94666 57.6995 11.731 57.7492 17.0935C57.7492 21.8373 54.2674 25.1888 49.9399 25.1888C45.1648 25.1888 41.9813 21.4248 41.9813 16.9904ZM54.2674 17.0935C54.2674 14.1029 52.1285 12.1951 49.8902 12.1951C47.3534 12.1951 45.4135 14.2576 45.4632 17.042C45.4632 19.9295 47.4031 21.992 49.8902 21.992C52.1782 21.992 54.2674 20.0842 54.2674 17.0935Z" fill="white"/>
<path fill-rule="evenodd" clip-rule="evenodd" d="M59.0922 17.0936C59.0922 12.8139 62.3751 8.99829 66.6031 8.99829C68.4435 8.99829 69.8363 9.72017 70.7316 10.8545V9.46235H74.0145V24.0545C74.0145 29.778 70.8311 32.5108 66.6528 32.5108C62.8228 32.5108 60.6839 30.0874 59.6394 27.767L62.6736 26.478C63.1212 27.5092 64.315 29.3655 66.7026 29.3655C69.1896 29.3655 70.8311 27.6639 70.8311 24.8795V23.2811C69.886 24.3639 68.742 25.2405 66.5036 25.2405C62.9223 25.2405 59.0922 21.9405 59.0922 17.0936ZM71.0798 17.1451C71.0798 14.0514 68.9409 12.1951 66.9015 12.1951C64.7129 12.1951 62.5741 13.9998 62.5243 17.1967C62.5243 20.1357 64.6135 22.0435 66.8518 22.0435C68.9907 22.0435 71.0798 20.342 71.0798 17.1451Z" fill="white"/>
<path fill-rule="evenodd" clip-rule="evenodd" d="M81.4259 17.042C81.4259 12.1951 84.7585 8.94666 88.7378 8.94666C91.8218 8.94666 94.1596 11.1123 95.2041 13.5873L95.7513 14.9279L85.256 19.4654C85.9026 20.7029 86.8974 21.9404 89.086 21.9404C91.0259 21.9404 92.2197 20.8576 92.9161 19.7232L95.6518 21.631C94.458 23.281 92.3689 25.1888 89.086 25.1888C85.1565 25.1888 81.4259 22.1467 81.4259 17.042ZM91.772 13.8451C91.2746 12.8654 90.2798 12.092 88.8373 12.092C86.599 12.092 84.4104 14.5154 84.8083 16.8873L91.772 13.8451Z" fill="white"/>
<path d="M76.4518 24.7249H79.8839V0.799927H76.4518V24.7249Z" fill="white"/>
</svg>
