<svg width="96" height="27" viewBox="0 0 96 27" fill="none" xmlns="http://www.w3.org/2000/svg">
<path fill-rule="evenodd" clip-rule="evenodd" d="M13.488 24.8587C12.5865 25.0113 11.6849 25.1066 10.7599 25.2043L10.7597 25.2044C10.2072 25.2628 9.64631 25.322 9.072 25.3949L4.464 11.6474V25.9799C3.024 26.1262 1.728 26.3212 0.335999 26.5649V0.288696H4.176L9.408 15.2062V0.288696H13.488V24.8587ZM21.456 9.9412C22.2669 9.9412 23.2916 9.91565 24.2919 9.8907H24.2919H24.2919L24.292 9.8907C25.2457 9.86692 26.1772 9.8437 26.88 9.8437V13.9387C25.104 13.9387 22.992 13.9387 21.456 14.0362V20.1299C22.2038 20.0834 22.9565 20.032 23.7125 19.9804L23.7131 19.9803C25.3346 19.8695 26.9713 19.7577 28.608 19.6912V23.6399L17.424 24.5174V0.288696H28.608V4.3837H21.456V9.9412ZM39.408 4.43245H43.584C43.584 4.43245 43.584 0.288696 43.632 0.288696H31.2V4.43245H35.376V23.3474C36.672 23.2987 38.064 23.2987 39.408 23.2987V4.43245ZM50.16 9.6487H55.68V13.7437H50.16V23.0549H46.176V0.288696H57.456V4.3837H50.16V9.6487ZM68.2178 19.6434C66.8297 19.5606 65.4309 19.477 64.032 19.4474V0.288696H60V23.2987C63.696 23.3962 67.296 23.5912 70.896 23.8349V19.7887C70.0099 19.7504 69.1163 19.6971 68.2183 19.6434L68.2181 19.6434L68.2178 19.6434ZM75.6663 24.2173L75.6665 24.2173C76.5314 24.2704 77.4097 24.3244 78.288 24.4199V0.288696H74.304V24.1274C74.753 24.1612 75.2077 24.1891 75.6663 24.2173ZM90.816 12.7687L95.952 0.288696H91.488L88.656 7.16245L86.016 0.288696H81.696L86.4 12.6224L81.216 24.6149C81.792 24.6929 82.368 24.7553 82.944 24.8177C83.808 24.9113 84.672 25.0049 85.536 25.1512L88.512 18.1799L91.392 25.7849C91.9299 25.8703 92.462 25.9617 92.9922 26.0527C93.9761 26.2216 94.9539 26.3895 95.952 26.5162L90.816 12.7687Z" fill="white"/>
</svg>
