<svg width="110" height="33" viewBox="0 0 110 33" fill="none" xmlns="http://www.w3.org/2000/svg">
<path d="M19.7015 3.30004C19.2636 1.82073 17.7313 1.02418 16.3084 1.47935C14.8855 1.93452 14.1194 3.52763 14.5572 5.00694L21.5622 27.4242C22.0547 28.7897 23.4776 29.5862 24.8457 29.188C26.2686 28.7328 27.1442 27.1966 26.7064 25.7173C26.7064 25.6604 19.7015 3.30004 19.7015 3.30004" fill="white"/>
<path d="M8.86564 6.99828C8.42783 5.51897 6.89549 4.72242 5.47261 5.17759C4.04972 5.63277 3.28355 7.22587 3.72136 8.70518L10.7263 31.1224C11.2189 32.4879 12.6418 33.2845 14.0099 32.8862C15.4328 32.431 16.3084 30.8948 15.8706 29.4155C15.8706 29.3586 8.86564 6.99828 8.86564 6.99828" fill="white"/>
<path d="M28.5672 21.9051C29.9901 21.45 30.7562 19.8569 30.3184 18.3776C29.8806 16.8982 28.3483 16.1017 26.9254 16.5569L5.30846 23.7827C3.99503 24.2948 3.22886 25.7741 3.61194 27.1965C4.04975 28.6758 5.52736 29.5862 6.95025 29.131C7.0597 29.131 28.5672 21.9051 28.5672 21.9051" fill="white"/>
<path d="M9.796 28.2207C11.2189 27.7655 13.0249 27.1397 14.9403 26.4569C14.5025 24.9776 13.9005 23.1 13.2438 21.1086L8.09949 22.8724L9.796 28.2207" fill="white"/>
<path d="M20.6866 24.5223C22.6567 23.8396 24.4627 23.2706 25.8308 22.7586C25.393 21.2792 24.791 19.4017 24.1343 17.4103L18.9901 19.1741L20.6866 24.5223" fill="white"/>
<path d="M25.0099 10.5828C26.4328 10.1276 27.199 8.53448 26.7612 7.05517C26.3234 5.57586 24.791 4.77931 23.3681 5.23448L1.80596 12.5172C0.492524 13.0293 -0.273645 14.5086 0.10944 15.931C0.54725 17.4672 2.02486 18.3776 3.44775 17.8655C3.50247 17.8655 25.0099 10.5828 25.0099 10.5828" fill="white"/>
<path d="M6.2935 16.8982C7.71639 16.443 9.52236 15.8172 11.4378 15.1344C10.7811 13.0861 10.2338 11.2085 9.74126 9.78613L4.59698 11.5499L6.2935 16.8982" fill="white"/>
<path d="M17.1293 13.2568C19.0995 12.5741 20.9054 12.0051 22.2736 11.4931C21.6169 9.44478 21.0696 7.56719 20.5771 6.14478L15.4328 7.90857L17.1293 13.2568" fill="white"/>
<path d="M50.403 9.21723C51.3333 9.6724 51.4428 9.95688 50.6766 11.4362C49.9104 12.9724 49.7463 13.0293 48.7612 12.631C47.5572 12.1189 46.0796 11.7207 45.0945 11.7207C43.5075 11.7207 42.4677 12.2896 42.4677 13.2C42.4677 16.1586 51.607 14.5655 51.607 20.9379C51.607 24.1241 48.9801 26.2293 45.0398 26.2293C42.9602 26.2293 40.3881 25.4896 38.6368 24.5793C37.7612 24.1241 37.7065 23.8396 38.4726 22.3034C39.1293 20.9948 39.3483 20.8241 40.2786 21.2224C41.8109 21.9052 43.6716 22.4172 44.9851 22.4172C46.4627 22.4172 47.393 21.7914 47.393 20.881C47.393 17.9793 38.0895 19.3448 38.0895 13.2C38.0895 9.95688 40.7164 7.73792 44.602 7.73792C46.4627 7.9086 48.8159 8.47757 50.403 9.21723" fill="white"/>
<path d="M57.791 1.70694V25.3759C57.791 25.7173 57.408 26.1156 56.9154 26.1156H54.5075C53.9602 26.1156 53.6318 25.7173 53.6318 25.3759V1.70694C53.6318 0.512116 53.9602 0.45522 55.7114 0.45522C57.6816 0.398323 57.791 0.569013 57.791 1.70694" fill="white"/>
<path fill-rule="evenodd" clip-rule="evenodd" d="M74.7562 25.1482V14.9637C74.7562 10.5258 71.8557 7.90857 67.2587 7.90857C65.1791 7.90857 62.8806 8.59133 61.2388 9.72926C60.3632 10.2982 60.3632 10.5827 61.2388 12.0051C62.1691 13.4275 62.3333 13.4844 63.2089 12.9724C64.3035 12.2896 65.6716 11.8344 66.8209 11.8344C69.2288 11.8344 70.6517 12.9724 70.6517 14.8499V16.0448C69.5025 15.5327 68.0796 15.2482 66.5472 15.2482C62.4428 15.2482 59.7612 17.5241 59.7612 20.9379C59.7612 24.1241 62.1691 26.2862 65.7263 26.2862C67.587 26.2862 69.4477 25.4896 70.7064 24.0103L70.6517 25.0913C70.597 25.6603 70.9801 26.0586 71.5273 26.0586H73.8806C74.3731 26.0586 74.7562 25.7172 74.7562 25.1482ZM66.2189 22.8724C64.7413 22.8724 63.7562 22.0758 63.7562 20.881C63.7562 19.4017 65.2338 18.2638 67.4229 18.2638C68.4627 18.2638 69.6666 18.4345 70.597 18.8327V20.4258C69.6666 21.9621 68.0249 22.8724 66.2189 22.8724Z" fill="white"/>
<path d="M91.0099 9.27409C91.8856 9.78616 91.8856 10.0706 90.9552 11.6068C90.0796 13.0293 89.9154 13.1431 88.9303 12.631C88.2189 12.2327 87.0149 11.8913 86.0846 11.8913C83.0746 11.8913 81.1045 13.9396 81.1045 17.0689C81.1045 20.312 83.0746 22.4741 86.0846 22.4741C87.1244 22.4741 88.4378 22.0758 89.2587 21.5637C90.1343 21.0517 90.2985 21.0517 91.2288 22.4741C92.0497 23.7827 92.0497 24.0672 91.2836 24.6362C89.9701 25.6034 87.8358 26.3431 85.9751 26.3431C80.4477 26.3431 76.7263 22.6448 76.7263 17.1258C76.7263 11.6068 80.4477 7.96547 86.0298 7.96547C87.7811 7.90857 89.7512 8.47753 91.0099 9.27409" fill="white"/>
<path d="M109.124 23.8394C109.836 24.7498 109.562 25.0912 107.811 25.717C106.06 26.3998 105.786 26.3429 105.184 25.4894L100.204 18.605L97.9602 20.8239V25.3187C97.9602 25.6601 97.5771 26.0584 97.0845 26.0584H94.6766C94.1293 26.0584 93.801 25.6601 93.801 25.3187V1.70668C93.801 0.511853 94.1293 0.454956 95.8806 0.454956C97.9054 0.454956 97.9602 0.625646 97.9602 1.70668V15.1343L104.746 8.36358C105.512 7.62392 105.895 7.68082 107.264 8.59116C108.741 9.5584 108.851 9.84289 108.139 10.5825L103.104 15.7032L109.124 23.8394" fill="white"/>
</svg>
