<svg width="96" height="22" viewBox="0 0 96 22" fill="none" xmlns="http://www.w3.org/2000/svg">
<path d="M15.0448 0.942843V12.5768C15.0448 16.4548 13.4209 18.0664 9.6 18.0664C5.7791 18.0664 4.15522 16.4548 4.15522 12.5768V0.439209H0.477612C0.143284 0.439209 0 0.590299 0 0.942843V12.7279C0 19.2247 3.91642 21.4911 9.6 21.4911C15.2836 21.4911 19.2 19.2247 19.2 12.7279V0.439209H15.5224C15.2358 0.439209 15.0448 0.590299 15.0448 0.942843" fill="white"/>
<path d="M68.394 3.81355C68.6806 3.81355 68.8239 3.71283 68.9194 3.46101L69.9701 0.691026C70.0179 0.539936 69.9701 0.439209 69.8269 0.439209H55.0209C53.6358 0.439209 53.1104 0.892479 53.1104 1.89975V19.9298C53.1104 20.786 53.4925 21.1386 54.591 21.1386H68.394C68.6806 21.1386 68.8239 21.0378 68.9194 20.786L69.9701 18.016C70.0179 17.8649 69.9701 17.7642 69.8269 17.7642H57.1701V14.0877C57.1701 12.8286 57.8388 12.2242 59.606 12.2242H65.0985C65.3851 12.2242 65.5284 12.1235 65.6239 11.8717L66.6269 9.20244C66.6746 9.05135 66.6269 8.95062 66.4836 8.95062H57.1224V3.81355H68.394" fill="white"/>
<path fill-rule="evenodd" clip-rule="evenodd" d="M44.609 5.677C44.609 7.64117 43.9403 9.30316 42.3164 10.2097C44.5134 10.8644 45.5164 12.9293 45.4687 15.3971C45.4687 19.5269 42.6985 21.1386 38.8299 21.1386H28.5612C27.4627 21.1386 27.0806 20.786 27.0806 19.9298V1.89975C27.0806 0.892479 27.606 0.439209 28.991 0.439209H37.397C41.0746 0.439209 44.609 1.09393 44.609 5.677ZM31.188 3.76326H37.6836C39.8328 3.76326 40.4537 4.61944 40.4537 6.43252C40.4537 8.19524 39.8328 9.10178 37.6836 9.10178H31.188V3.76326ZM38.4478 17.8146H31.188V14.0373C31.188 12.7783 31.8567 12.1739 33.6239 12.1739H38.4478C40.7403 12.1739 41.4089 13.1308 41.4089 14.9942C41.4089 16.9081 40.7403 17.8146 38.4478 17.8146Z" fill="white"/>
<path fill-rule="evenodd" clip-rule="evenodd" d="M91.2717 12.8286L95.6657 20.786C95.7612 20.8867 95.7612 21.1386 95.4269 21.1386H91.7015C91.4261 21.1386 91.3271 20.999 91.1926 20.8093C91.1872 20.8016 91.1817 20.7938 91.1761 20.786L87.212 13.2315H83.5821C81.8149 13.2315 81.1463 13.8359 81.1463 15.095V21.1386H77.5642C77.2299 21.1386 77.0866 20.9875 77.0866 20.6349V1.89975C77.0866 0.892479 77.612 0.439209 78.997 0.439209H87.403C92.2746 0.439209 95.2358 1.79902 95.2358 6.83536C95.2358 10.7133 93.4687 12.2242 91.2717 12.8286ZM81.1463 10.0587H87.9761C90.5552 10.0587 91.0806 9.00105 91.0806 6.88579C91.0806 4.82089 90.5075 3.76326 87.9761 3.76326H81.1463V10.0587Z" fill="white"/>
</svg>
